<svg width="116mm" height="117mm" version="1.1" viewBox="0 0 116 117" xmlns="http://www.w3.org/2000/svg"><path d="m24.704 103.18c-8.7714-6.5785 0.66972-12.395-4.9165-21.829-5.5862-9.4344-15.225-3.953-16.776-14.807-1.5506-10.854 9.238-8.2908 11.959-18.912 2.7211-10.621-7.9709-13.561-1.3923-22.333 6.5785-8.7714 12.395 0.66972 21.829-4.9165 9.4344-5.5862 3.953-15.226 14.807-16.776 10.854-1.5506 8.2908 9.238 18.912 11.959 10.621 2.7211 13.561-7.9709 22.333-1.3923 8.7714 6.5785-0.66972 12.395 4.9165 21.829 5.5862 9.4344 15.225 3.953 16.776 14.807 1.5506 10.854-9.238 8.2908-11.959 18.912-2.7211 10.621 7.9709 13.561 1.3923 22.333-6.5785 8.7714-12.395-0.66972-21.829 4.9165-9.4344 5.5862-3.953 15.225-14.807 16.776-10.854 1.5506-8.2908-9.238-18.912-11.959-10.621-2.7211-13.561 7.9709-22.333 1.3924z" fill="#a80" stroke="#e8b900" stroke-width="4.946"/><path d="m26.122 77.908q-0.32069 0-0.55391-0.46638-0.23322-0.46638-0.23322-1.1076v-37.66q0-0.64127 0.23322-1.1076 0.23323-0.46638 0.55391-0.46638h14.956q0.32069 0 0.55391 0.46638 0.23322 0.46637 0.23322 1.1076v8.2199q0 0.64126-0.23322 1.1076-0.23323 0.46638-0.55391 0.46638h-8.746v3.6727h8.1046q0.32069 0 0.55391 0.46637 0.23323 0.46638 0.23323 1.1076v7.5786q0 0.64127-0.23323 1.1076-0.23323 0.46638-0.55391 0.46638h-8.1046v3.6727h8.9792q0.32069 0 0.55391 0.46637 0.23323 0.46638 0.23323 1.1076v8.2199q0 0.64126-0.23323 1.1076-0.23322 0.46638-0.55391 0.46638zm23.459 0q-0.26238 0-0.46645-0.34978-0.17492-0.40808-0.17492-0.93275 0-0.11659 0-0.23319 0.02915-0.17488 0.08746-0.40808l6.1222-18.946-5.51-18.014q-0.08746-0.34978-0.08746-0.64126 0-0.52467 0.17492-0.87445 0.20407-0.40808 0.46645-0.40808h6.3263q0.58306 0 0.84544 0.58297 0.29153 0.58297 0.37899 0.87445l2.0407 7.1122 2.2156-7.1122q0.08746-0.29148 0.37899-0.87445 0.29153-0.58297 0.84544-0.58297h6.0347q0.26238 0 0.4373 0.40808 0.20407 0.34978 0.20407 0.87445 0 0.34978-0.08746 0.64126l-5.6266 17.839 6.2096 19.121q0.05831 0.23319 0.05831 0.40808 0.02915 0.11661 0.02915 0.23319 0 0.52467-0.20407 0.93275-0.17492 0.34978-0.4373 0.34978h-6.5595q-0.55391 0-0.84544-0.52467-0.29153-0.58297-0.34984-0.81616l-2.5363-7.8118-2.4197 7.8118q-0.05831 0.23319-0.34984 0.81616-0.26238 0.52467-0.84544 0.52467zm29.057 0q-0.32068 0-0.55391-0.46638-0.23323-0.46638-0.23323-1.1076v-37.66q0-0.64127 0.23323-1.1076 0.23323-0.46638 0.55391-0.46638h8.8334q2.6529 0 4.6062 1.574 1.9824 1.5157 3.0611 4.722 1.1078 3.148 1.1078 7.9867 0 4.8386-1.1078 7.9284-1.0787 3.0314-3.0611 4.4889-1.9533 1.3991-4.6062 1.3991h-2.0407v11.135q0 0.64126-0.23323 1.1076-0.23323 0.46638-0.55391 0.46638zm6.6469-23.494h2.0407q0.46645 0 0.90374-0.69956 0.4373-0.75786 0.4373-2.4485 0-1.1076-0.29154-2.2153-0.26238-1.1076-1.0495-1.1076h-2.0407z" fill="#ececec" stroke="#6f3e3e" stroke-opacity=".57382" stroke-width="2.1225" style="font-variation-settings:'wght' 900" aria-label="EXP"/></svg>
