<svg width="106mm" height="21mm" version="1.1" viewBox="0 0 106 21" xmlns="http://www.w3.org/2000/svg"><text x="41.721855" y="60.033112" fill="#ffffff" font-family="'Titillium Web'" font-size="25.4px" letter-spacing="0px" stroke="#010101" stroke-opacity=".79" stroke-width=".768" word-spacing="0px" style="font-variant-caps:normal;font-variant-east-asian:normal;font-variant-ligatures:normal;font-variant-numeric:normal;font-variation-settings:'wght' 900;line-height:0" xml:space="preserve"><tspan x="41.721855" y="60.033112" fill="#ffffff" stroke-width=".768"/></text><g transform="translate(-42.286 -58.84)"><path d="m123.04 62.2h1.8177v16.362h-1.8177z" fill="#be0821" stroke="#1f1111" stroke-width=".8" style="font-variation-settings:'wght' 900"/><g fill="#fff" stroke="#010101" stroke-opacity=".79" stroke-width=".768"><path d="m57.37 60.332v18.237h-1.8796v-0.8636q-1.9558 1.1176-3.8608 1.1176-1.016 0-1.778-0.254t-1.4224-0.9144q-1.3716-1.3716-1.3716-5.0546 0-3.7084 1.2192-5.334 1.2446-1.651 4.0894-1.651 1.4732 0 3.1242 0.3302v-5.6134zm-7.4676 15.951q0.4064 0.4826 0.8636 0.6604t1.1684 0.1778q0.7366 0 1.6256-0.2286 0.9144-0.254 1.4224-0.4826l0.508-0.2286v-8.6106q-1.6256-0.3048-3.0226-0.3048-1.9304 0-2.6924 1.2446-0.762 1.2192-0.762 3.81 0 2.9464 0.889 3.9624z" style="font-variation-settings:'wght' 900" aria-label="d"/><path d="m75.824 76.745 0.7366-0.0762 0.0508 1.4986q-2.8956 0.4064-4.953 0.4064-2.7432 0-3.8862-1.5748-1.143-1.6002-1.143-4.953 0-6.6802 5.3086-6.6802 2.5654 0 3.8354 1.4478 1.27 1.4224 1.27 4.4958l-0.1016 1.4478h-8.382q0 2.1082 0.762 3.1242t2.6416 1.016q1.905 0 3.8608-0.1524zm-0.6858-5.5118q0-2.3368-0.762-3.302-0.7366-0.9652-2.4384-0.9652-1.6764 0-2.54 1.016-0.8382 1.016-0.8636 3.2512z" style="font-variation-settings:'wght' 900" aria-label="e"/><path d="m89.758 67.107q-2.7686 0-2.7686 1.9304 0 0.889 0.635 1.27 0.635 0.3556 2.8956 0.762 2.2606 0.381 3.2004 1.0922t0.9398 2.667-1.27 2.8702q-1.2446 0.9144-3.6576 0.9144-1.5748 0-3.7084-0.3556l-0.762-0.127 0.1016-1.651q2.8956 0.4318 4.3688 0.4318t2.2352-0.4572q0.7874-0.4826 0.7874-1.5748 0-1.1176-0.6604-1.4986-0.6604-0.4064-2.8956-0.762t-3.175-1.0414-0.9398-2.54 1.2954-2.7432q1.3208-0.889 3.2766-0.889 1.5494 0 3.8862 0.3556l0.7112 0.127-0.0508 1.6256q-2.8194-0.4064-4.445-0.4064z" style="font-variation-settings:'wght' 900" aria-label="s"/><path d="m101.06 78.559h-1.905v-18.237h1.905v10.77l1.9812-0.1016 3.6322-5.1308h2.159l-4.1402 5.842 4.318 6.858h-2.159l-3.7846-5.8928-2.0066 0.0762z" style="font-variation-settings:'wght' 900" aria-label="k"/><path d="m136.4 76.885 0.7366-0.0762 0.0508 1.4986q-2.8956 0.4064-4.953 0.4064-2.7432 0-3.8862-1.5748-1.143-1.6002-1.143-4.953 0-6.6802 5.3086-6.6802 2.5654 0 3.8354 1.4478 1.27 1.4224 1.27 4.4958l-0.1016 1.4478h-8.382q0 2.1082 0.762 3.1242t2.6416 1.016q1.905 0 3.8608-0.1524zm-0.6858-5.5118q0-2.3368-0.762-3.302-0.7366-0.9652-2.4384-0.9652-1.6764 0-2.54 1.016-0.8382 1.016-0.8636 3.2512z" style="font-variation-settings:'wght' 900" aria-label="e"/><path d="m141.37 78.576v-12.7h1.8796v1.7272q2.2098-1.524 4.6482-2.0066v1.9304q-1.0668 0.2032-2.2352 0.635-1.143 0.4318-1.7526 0.762l-0.635 0.3302v9.3218z" style="font-variation-settings:'wght' 900" aria-label="r"/><path d="m111.41 78.634v-12.7h1.905v12.7zm0-15.57v-2.2098h1.905v2.2098z" style="font-variation-settings:'wght' 900" aria-label="i"/></g><g stroke="#010101"><path d="m117.03 65.428h1.8962v13.127h-1.8962z" fill="#eab601" stroke-opacity=".79" stroke-width=".84226" style="font-variation-settings:'wght' 900"/><path d="m61.435 66.046h1.9131v12.493h-1.9131z" fill="#4b8701" fill-opacity=".97436" stroke-opacity=".79" stroke-width=".82537" style="font-variation-settings:'wght' 900"/><g transform="translate(-71.738 35.781)" fill="#024aff" stroke-opacity=".78691" stroke-width=".7"><path d="m114.88 34.392h2.037v8.4735h-2.037z" style="font-variation-settings:'wght' 900"/><path d="m116.79 32.149a0.96669 0.99213 0 0 1-0.96669 0.99213 0.96669 0.99213 0 0 1-0.96669-0.99213 0.96669 0.99213 0 0 1 0.96669-0.99213 0.96669 0.99213 0 0 1 0.96669 0.99213z" style="font-variation-settings:'wght' 900"/></g></g></g></svg>
