<svg version="1.0" id="Layer_1" xmlns="http://www.w3.org/2000/svg" xmlns:xlink="http://www.w3.org/1999/xlink" viewBox="0 0 64 64" enable-background="new 0 0 64 64" xml:space="preserve" fill="currentColor"><g id="SVGRepo_bgCarrier" stroke-width="0"></g><g id="SVGRepo_tracerCarrier" stroke-linecap="round" stroke-linejoin="round"></g><g id="SVGRepo_iconCarrier"> <g> <path fill="currentColor" d="M17,28c2.209,0,4-1.791,4-4V0h-8v24C13,26.209,14.791,28,17,28z"></path> <path fill="currentColor" d="M53,24c0,2.209,1.791,4,4,4h4c1.312,0,2-0.687,2-2V4c0-2.211-1.789-4-4-4h-6V24z"></path> <path fill="currentColor" d="M27,28c2.209,0,4-1.791,4-4V0h-8v24C23,26.209,24.791,28,27,28z"></path> <path fill="currentColor" d="M7,28c2.209,0,4-1.791,4-4V0H5C2.789,0,1,1.789,1,4v22c0,1.313,0.812,2,2,2H7z"></path> <path fill="currentColor" d="M37,28c2.209,0,4-1.791,4-4V0h-8v24C33,26.209,34.791,28,37,28z"></path> <path fill="currentColor" d="M47,28c2.209,0,4-1.791,4-4V0h-8v24C43,26.209,44.791,28,47,28z"></path> <g> <path fill="currentColor" d="M12,64h12V50h-1c-0.553,0-1-0.447-1-1s0.447-1,1-1h1V38H12V64z"></path> <path fill="currentColor" d="M30,56h22V38H30V56z M47.293,40.293c0.391-0.391,1.023-0.391,1.414,0l1,1c0.391,0.391,0.391,1.023,0,1.414 C49.512,42.902,49.256,43,49,43s-0.512-0.098-0.707-0.293l-1-1C46.902,41.316,46.902,40.684,47.293,40.293z M42.293,40.293 c0.391-0.391,1.023-0.391,1.414,0l6,6c0.391,0.391,0.391,1.023,0,1.414C49.512,47.902,49.256,48,49,48s-0.512-0.098-0.707-0.293 l-6-6C41.902,41.316,41.902,40.684,42.293,40.293z"></path> <path fill="currentColor" d="M57,30c-2.088,0-3.926-1.068-5-2.687C50.926,28.932,49.088,30,47,30s-3.926-1.068-5-2.687 C40.926,28.932,39.088,30,37,30s-3.926-1.068-5-2.687C30.926,28.932,29.088,30,27,30s-3.926-1.068-5-2.687 C20.926,28.932,19.088,30,17,30s-3.926-1.068-5-2.687C10.926,28.932,9.088,30,7,30H4v30c0,2.211,1.789,4,4,4h2V37 c0-0.553,0.447-1,1-1h14c0.553,0,1,0.447,1,1v27h30c2.211,0,4-1.789,4-4V30H57z M54,57c0,0.553-0.447,1-1,1H29 c-0.553,0-1-0.447-1-1V37c0-0.553,0.447-1,1-1h24c0.553,0,1,0.447,1,1V57z"></path> </g> </g> </g></svg>
